<?xml version="1.0" encoding="UTF-8" standalone="no"?>
<!DOCTYPE svg PUBLIC "-//W3C//DTD SVG 1.1//EN" "http://www.w3.org/Graphics/SVG/1.1/DTD/svg11.dtd">
<svg xmlns="http://www.w3.org/2000/svg" version="1.1" viewBox="0.00 0.00 512.00 512.00">
<g stroke-width="2.00" fill="none" stroke-linecap="butt">
<path stroke="#ffa480" vector-effect="non-scaling-stroke" d="
  M 260.9104 115.5753
  A 18.55 18.55 0.0 0 0 238.2143 102.4188
  L 132.5894 130.5234
  A 18.55 18.55 0.0 0 0 119.4329 153.2195
  L 160.2296 306.5447
  A 18.55 18.55 0.0 0 0 182.9257 319.7012
  L 288.5506 291.5966
  A 18.55 18.55 0.0 0 0 301.7071 268.9005
  L 260.9104 115.5753"
/>
<path stroke="#ffa480" vector-effect="non-scaling-stroke" d="
  M 188.61 327.34
  C 218.86 335.65 249.12 344.13 279.46 352.11
  Q 287.79 354.30 291.85 353.80
  C 300.36 352.74 304.84 347.11 307.04 338.98
  Q 326.70 266.56 346.25 194.14
  C 349.06 183.74 350.72 174.55 341.91 167.87
  Q 338.38 165.20 327.36 162.20
  Q 303.27 155.63 279.12 149.28
  Q 278.54 149.13 278.69 149.71
  Q 293.13 204.50 307.73 259.28
  Q 310.54 269.84 310.39 274.96
  C 309.95 289.76 300.16 297.27 286.87 300.79
  Q 237.68 313.82 188.61 326.88
  A 0.24 0.24 0.0 0 0 188.61 327.34"
/>
<path stroke="#ffa480" vector-effect="non-scaling-stroke" d="
  M 249.49 404.51
  C 254.70 409.71 262.51 411.64 269.25 408.97
  Q 272.78 407.58 278.94 401.42
  Q 331.92 348.45 384.90 295.49
  Q 390.20 290.19 391.87 286.55
  Q 396.89 275.63 387.40 266.06
  Q 367.17 245.68 347.08 225.35
  A 0.37 0.37 0.0 0 0 346.46 225.51
  Q 331.28 281.86 316.19 338.07
  Q 313.95 346.42 311.47 350.32
  C 303.56 362.78 291.11 364.09 277.79 360.45
  Q 228.14 346.87 178.53 333.24
  A 0.15 0.15 0.0 0 0 178.38 333.49
  Q 213.85 369.02 249.49 404.51"
/>
</g>
<path fill="#EE8208" d="
  M 249.55 0.00
  L 262.56 0.00
  C 397.70 4.27 505.67 110.15 512.00 245.32
  L 512.00 266.56
  C 505.56 400.02 400.68 505.90 266.68 512.00
  L 245.19 512.00
  C 109.88 505.02 3.78 397.82 0.00 261.69
  L 0.00 250.19
  C 2.33 183.46 28.01 121.60 75.31 74.92
  Q 146.85 4.32 249.55 0.00
  Z
  M 260.9104 115.5753
  A 18.55 18.55 0.0 0 0 238.2143 102.4188
  L 132.5894 130.5234
  A 18.55 18.55 0.0 0 0 119.4329 153.2195
  L 160.2296 306.5447
  A 18.55 18.55 0.0 0 0 182.9257 319.7012
  L 288.5506 291.5966
  A 18.55 18.55 0.0 0 0 301.7071 268.9005
  L 260.9104 115.5753
  Z
  M 188.61 327.34
  C 218.86 335.65 249.12 344.13 279.46 352.11
  Q 287.79 354.30 291.85 353.80
  C 300.36 352.74 304.84 347.11 307.04 338.98
  Q 326.70 266.56 346.25 194.14
  C 349.06 183.74 350.72 174.55 341.91 167.87
  Q 338.38 165.20 327.36 162.20
  Q 303.27 155.63 279.12 149.28
  Q 278.54 149.13 278.69 149.71
  Q 293.13 204.50 307.73 259.28
  Q 310.54 269.84 310.39 274.96
  C 309.95 289.76 300.16 297.27 286.87 300.79
  Q 237.68 313.82 188.61 326.88
  A 0.24 0.24 0.0 0 0 188.61 327.34
  Z
  M 249.49 404.51
  C 254.70 409.71 262.51 411.64 269.25 408.97
  Q 272.78 407.58 278.94 401.42
  Q 331.92 348.45 384.90 295.49
  Q 390.20 290.19 391.87 286.55
  Q 396.89 275.63 387.40 266.06
  Q 367.17 245.68 347.08 225.35
  A 0.37 0.37 0.0 0 0 346.46 225.51
  Q 331.28 281.86 316.19 338.07
  Q 313.95 346.42 311.47 350.32
  C 303.56 362.78 291.11 364.09 277.79 360.45
  Q 228.14 346.87 178.53 333.24
  A 0.15 0.15 0.0 0 0 178.38 333.49
  Q 213.85 369.02 249.49 404.51
  Z"
/>
<rect fill="#ffffff" x="-73.20" y="-97.88" transform="translate(210.57,211.06) rotate(-14.9)" width="146.40" height="195.76" rx="18.55"/>
<path fill="#ffffff" d="
  M 279.46 352.11
  C 249.12 344.13 218.86 335.65 188.61 327.34
  A 0.24 0.24 0.0 0 1 188.61 326.88
  Q 237.68 313.82 286.87 300.79
  C 300.16 297.27 309.95 289.76 310.39 274.96
  Q 310.54 269.84 307.73 259.28
  Q 293.13 204.50 278.69 149.71
  Q 278.54 149.13 279.12 149.28
  Q 303.27 155.63 327.36 162.20
  Q 338.38 165.20 341.91 167.87
  C 350.72 174.55 349.06 183.74 346.25 194.14
  Q 326.70 266.56 307.04 338.98
  C 304.84 347.11 300.36 352.74 291.85 353.80
  Q 287.79 354.30 279.46 352.11
  Z"
/>
<path fill="#ffffff" d="
  M 269.25 408.97
  C 262.51 411.64 254.70 409.71 249.49 404.51
  Q 213.85 369.02 178.38 333.49
  A 0.15 0.15 0.0 0 1 178.53 333.24
  Q 228.14 346.87 277.79 360.45
  C 291.11 364.09 303.56 362.78 311.47 350.32
  Q 313.95 346.42 316.19 338.07
  Q 331.28 281.86 346.46 225.51
  A 0.37 0.37 0.0 0 1 347.08 225.35
  Q 367.17 245.68 387.40 266.06
  Q 396.89 275.63 391.87 286.55
  Q 390.20 290.19 384.90 295.49
  Q 331.92 348.45 278.94 401.42
  Q 272.78 407.58 269.25 408.97
  Z"
/>
</svg>
