<?xml version="1.0" ?><svg id="Write" style="enable-background:new 0 0 32 32;" version="1.1" viewBox="0 0 32 32" xml:space="preserve" xmlns="http://www.w3.org/2000/svg" xmlns:xlink="http://www.w3.org/1999/xlink"><style type="text/css">
	.st0{fill:#E4EDF2;}
	.st1{fill:#94A6B0;}
	.st2{fill:#FBC34E;}
</style><g><path class="st0" d="M19.193,22.807l-3.606,1.039c-0.358,0.104-0.753,0.005-1.02-0.262c-0.267-0.267-0.368-0.657-0.264-1.02   l1.037-3.615c0.049-0.169,0.139-0.323,0.263-0.447l6.527-6.543V5.63c0-0.573-0.464-1.037-1.037-1.037H7.252v4.228   c0,0.573-0.464,1.037-1.037,1.037H2.003L2,9.861v16.51c0,0.573,0.464,1.037,1.037,1.037h18.055c0.573,0,1.037-0.464,1.037-1.037   v-6.323l-2.489,2.495C19.515,22.667,19.361,22.758,19.193,22.807z"/><polygon class="st0" points="7.247,4.593 4.239,7.613 7.252,4.593  "/><path class="st1" d="M7.252,8.821V4.593l-3.012,3.02L2,9.858h0.003h4.211C6.787,9.858,7.252,9.393,7.252,8.821z"/><path class="st2" d="M29.697,10.995l-2.569-2.576c-0.194-0.195-0.459-0.305-0.734-0.305c-0.275,0-0.54,0.109-0.734,0.305   l-3.531,3.539l-6.527,6.543c-0.124,0.124-0.214,0.277-0.263,0.447l-1.037,3.615c-0.104,0.363-0.003,0.752,0.264,1.02   c0.267,0.267,0.661,0.366,1.02,0.262l3.606-1.039c0.168-0.049,0.322-0.14,0.447-0.264l2.489-2.495l7.568-7.587   C30.101,12.055,30.101,11.4,29.697,10.995z"/></g></svg>