<?xml version="1.0" encoding="UTF-8" standalone="no"?>
<!DOCTYPE svg PUBLIC "-//W3C//DTD SVG 1.1//EN" "http://www.w3.org/Graphics/SVG/1.1/DTD/svg11.dtd">
<svg xmlns="http://www.w3.org/2000/svg" version="1.1" viewBox="0 0 1024 1024">
<g stroke-width="2.00" fill="none" stroke-linecap="butt">
<path stroke="#fbecbc" vector-effect="non-scaling-stroke" d="
  M 593.08 500.67
  Q 591.08 499.52 590.12 501.24
  Q 589.97 501.50 589.67 501.50
  L 589.29 501.50"
/>
<path stroke="#acb5ba" vector-effect="non-scaling-stroke" d="
  M 589.29 501.50
  C 588.10 497.00 585.25 483.11 580.15 482.03
  C 573.38 480.58 559.96 497.61 555.50 502.54"
/>
<path stroke="#fbecbc" vector-effect="non-scaling-stroke" d="
  M 555.50 502.54
  L 554.00 501.21"
/>
<path stroke="#acb5ba" vector-effect="non-scaling-stroke" d="
  M 554.00 501.21
  Q 554.81 500.60 554.76 499.77
  A 0.99 0.98 88.7 0 0 553.80 498.85
  Q 496.65 498.14 439.60 498.84
  C 438.24 498.86 437.18 499.49 437.79 501.00"
/>
<path stroke="#fbecbc" vector-effect="non-scaling-stroke" d="
  M 437.79 501.00
  L 437.21 501.75"
/>
<path stroke="#acb5ba" vector-effect="non-scaling-stroke" d="
  M 437.21 501.75
  Q 427.13 490.98 417.19 480.05
  C 414.06 476.61 409.88 477.12 408.17 481.46
  Q 404.40 490.99 400.71 500.50"
/>
<path stroke="#fbecbc" vector-effect="non-scaling-stroke" d="
  M 400.71 500.50
  Q 398.75 501.49 397.00 500.21"
/>
<path stroke="#acb5ba" vector-effect="non-scaling-stroke" d="
  M 397.00 500.21
  C 395.45 497.61 374.52 498.74 370.85 499.08
  Q 370.34 499.13 369.95 499.46
  Q 325.12 537.16 280.54 575.15
  Q 278.03 577.28 276.33 580.07
  Q 253.43 617.57 240.42 638.42
  C 239.06 640.60 237.30 642.86 237.94 645.43
  Q 238.97 649.65 244.01 649.73
  Q 258.40 649.98 279.00 649.55"
/>
<path stroke="#fbecbc" vector-effect="non-scaling-stroke" d="
  M 279.00 649.55
  L 279.00 653.21"
/>
<path stroke="#acb5ba" vector-effect="non-scaling-stroke" d="
  M 279.00 653.21
  Q 276.31 653.34 276.31 656.00
  Q 276.24 743.56 276.24 831.02
  A 1.24 1.23 0.0 0 0 277.48 832.25
  L 649.01 832.25
  Q 649.50 832.25 649.90 831.98
  Q 650.89 831.31 651.80 830.55
  Q 690.84 797.71 730.01 765.03
  C 734.64 761.16 742.01 757.81 741.97 751.00
  Q 741.55 687.51 741.80 606.75
  Q 741.81 605.13 739.28 605.39"
/>
<path stroke="#fbecbc" vector-effect="non-scaling-stroke" d="
  M 739.28 605.39
  Q 740.63 601.73 738.96 598.25"
/>
<path stroke="#acb5ba" vector-effect="non-scaling-stroke" d="
  M 738.96 598.25
  Q 763.04 576.53 787.53 555.31
  Q 793.41 550.22 788.03 544.99
  C 773.21 530.60 761.32 518.52 749.39 507.10
  Q 744.27 502.21 741.74 499.26
  Q 740.71 498.07 739.60 498.80
  Q 739.19 499.07 738.71 499.06
  L 727.00 498.79"
/>
<path stroke="#acb5ba" vector-effect="non-scaling-stroke" d="
  M 727.00 498.79
  C 714.32 499.33 700.27 498.71 689.02 498.89
  Q 665.97 499.25 642.99 498.81
  Q 642.49 498.80 642.54 498.30
  L 649.09 434.58
  A 0.51 0.50 -85.3 0 1 649.62 434.12
  Q 706.13 436.50 762.57 438.62
  Q 767.49 438.81 771.81 438.74
  Q 773.35 438.72 773.57 437.20
  Q 781.50 383.14 790.19 329.99
  Q 793.64 308.89 798.61 288.08
  C 800.67 279.45 792.50 276.91 785.72 275.36
  Q 768.54 271.43 750.98 269.98
  Q 703.66 266.06 656.18 266.69
  C 616.63 267.21 586.14 267.29 551.78 272.68
  C 546.83 273.46 543.59 274.10 542.51 279.01
  Q 539.84 291.12 538.69 301.55
  C 534.57 338.94 530.43 375.97 531.44 413.69
  C 531.56 418.23 532.10 424.87 536.74 425.62
  Q 550.47 427.83 572.68 429.42
  Q 608.66 431.99 644.74 433.77
  Q 645.17 433.79 645.13 434.23
  L 638.59 497.84
  Q 638.55 498.29 638.10 498.36
  C 627.31 500.07 616.03 499.31 602.18 499.21
  Q 602.12 499.21 598.98 498.84
  Q 595.95 498.48 593.08 500.67"
/>
<path stroke="#5f717b" vector-effect="non-scaling-stroke" d="
  M 727.00 498.79
  L 727.25 500.46"
/>
<path stroke="#afa97d" vector-effect="non-scaling-stroke" d="
  M 727.25 500.46
  Q 726.90 500.47 726.64 500.68
  Q 726.27 500.99 725.78 500.99
  L 642.93 501.14
  Q 642.48 501.14 642.42 501.59
  L 635.89 554.06
  A 0.67 0.67 0.0 0 0 636.61 554.81
  Q 648.93 553.79 650.81 564.17
  C 651.70 569.08 649.64 573.48 644.91 575.24"
/>
<path stroke="#acb5ba" vector-effect="non-scaling-stroke" d="
  M 644.91 575.24
  L 643.90 574.69
  Q 643.38 574.40 643.77 573.95
  C 650.10 566.62 646.58 556.41 636.00 556.76
  Q 635.39 556.78 635.29 557.37
  Q 634.28 563.30 633.37 569.20
  C 633.02 571.44 631.73 572.18 629.60 571.68
  Q 629.04 571.55 629.13 570.98
  L 631.02 558.99
  A 0.47 0.47 0.0 0 0 630.32 558.51
  Q 622.45 563.08 618.46 571.21
  Q 617.64 572.89 614.39 572.69"
/>
<path stroke="#afa97d" vector-effect="non-scaling-stroke" d="
  M 614.39 572.69
  Q 619.07 560.97 630.78 556.35
  Q 631.28 556.16 631.43 555.65
  Q 632.40 552.48 632.53 551.50
  Q 635.56 527.70 638.10 503.01
  Q 638.22 501.86 637.09 501.59
  C 634.69 501.02 632.29 500.78 629.65 500.79
  Q 611.38 500.88 593.08 500.67"
/>
<path stroke="#fbecbc" vector-effect="non-scaling-stroke" d="
  M 614.39 572.69
  Q 615.16 574.82 615.00 576.21"
/>
<path stroke="#fbecbc" vector-effect="non-scaling-stroke" d="
  M 644.25 576.21
  L 644.91 575.24"
/>
<path stroke="#afa97d" vector-effect="non-scaling-stroke" d="
  M 397.00 500.21
  C 396.39 500.38 395.22 500.85 394.62 500.84
  Q 383.31 500.64 372.00 500.91
  Q 371.49 500.93 371.07 501.21
  Q 367.44 503.66 362.57 508.07
  Q 352.05 517.62 325.66 540.39
  C 311.87 552.28 298.02 564.17 283.97 575.78
  A 0.30 0.30 0.0 0 0 284.16 576.31
  L 380.00 576.21"
/>
<path stroke="#afa97d" vector-effect="non-scaling-stroke" d="
  M 608.50 576.21
  L 615.00 576.21"
/>
<path stroke="#acb5ba" vector-effect="non-scaling-stroke" d="
  M 615.00 576.21
  L 644.25 576.21"
/>
<path stroke="#afa97d" vector-effect="non-scaling-stroke" d="
  M 644.25 576.21
  L 648.01 575.92
  Q 648.52 575.88 648.91 575.55
  Q 677.55 551.45 706.10 527.24
  C 709.03 524.75 713.38 521.59 716.81 518.40
  C 722.46 513.14 726.89 509.54 731.87 505.00
  C 732.92 504.04 734.46 503.67 735.63 502.47
  A 0.98 0.98 0.0 0 0 735.24 500.85
  Q 734.12 500.47 733.22 501.08
  Q 732.79 501.38 732.27 501.43
  Q 729.58 501.73 727.25 500.46"
/>
<path stroke="#afa97d" vector-effect="non-scaling-stroke" d="
  M 738.96 598.25
  Q 714.98 618.61 707.80 625.80
  C 700.27 633.33 693.01 622.74 688.14 618.01
  Q 669.06 599.44 649.82 581.00
  Q 649.43 580.63 648.99 580.93
  Q 647.95 581.65 647.75 582.96"
/>
<path stroke="#afb49e" vector-effect="non-scaling-stroke" d="
  M 647.75 582.96
  L 631.54 610.50"
/>
<path stroke="#afa97d" vector-effect="non-scaling-stroke" d="
  M 631.54 610.50
  Q 622.96 624.52 614.71 638.73
  C 611.71 643.90 607.71 649.10 602.24 649.46
  C 591.26 650.19 576.01 649.51 566.58 649.51
  Q 422.79 649.46 279.00 649.55"
/>
<path stroke="#afa97d" vector-effect="non-scaling-stroke" d="
  M 437.21 501.75
  C 441.71 507.28 450.69 519.80 458.25 519.95
  Q 490.44 520.61 526.08 519.97
  C 533.85 519.83 539.70 522.78 545.35 515.60
  Q 550.47 509.10 555.50 502.54"
/>
<path stroke="#afa97d" vector-effect="non-scaling-stroke" d="
  M 589.29 501.50
  Q 599.03 539.34 608.75 570.75
  Q 609.14 572.00 608.46 572.75"
/>
<path stroke="#acb5ba" vector-effect="non-scaling-stroke" d="
  M 608.46 572.75
  Q 606.91 573.20 605.39 572.95
  Q 604.85 572.87 604.70 572.35
  C 596.25 544.88 589.57 516.94 580.87 489.58
  Q 580.16 487.36 578.96 485.34
  A 1.99 1.98 52.0 0 0 575.84 484.95
  Q 561.40 499.53 548.87 515.62
  Q 543.12 523.00 534.02 522.70
  C 506.80 521.81 482.32 522.00 456.50 521.65
  Q 449.42 521.55 445.09 516.66
  Q 429.02 498.50 412.80 480.68
  A 0.41 0.41 0.0 0 0 412.11 480.82
  C 408.55 490.98 404.33 501.29 401.31 511.12
  Q 390.08 547.63 383.73 571.70
  Q 382.90 574.84 380.25 575.04"
/>
<path stroke="#afa97d" vector-effect="non-scaling-stroke" d="
  M 380.25 575.04
  Q 378.83 575.07 379.10 574.08
  C 383.41 558.01 390.65 531.51 398.64 508.52
  C 399.52 505.97 399.93 503.20 400.71 500.50"
/>
<path stroke="#fbecbc" vector-effect="non-scaling-stroke" d="
  M 608.46 572.75
  L 608.50 576.21"
/>
<path stroke="#acb5ba" vector-effect="non-scaling-stroke" d="
  M 608.50 576.21
  L 495.53 576.33
  Q 495.08 576.33 494.91 575.90
  C 493.89 573.24 499.00 571.67 500.82 570.40
  A 0.48 0.48 0.0 0 0 500.55 569.52
  L 485.79 569.22
  A 0.79 0.79 0.0 0 0 485.40 570.70
  C 487.08 571.60 491.35 573.43 490.95 575.64
  Q 490.85 576.19 490.29 576.19
  L 380.00 576.21"
/>
<path stroke="#fbecbc" vector-effect="non-scaling-stroke" d="
  M 380.00 576.21
  L 380.25 575.04"
/>
<path stroke="#afb49e" vector-effect="non-scaling-stroke" d="
  M 649.72 586.59
  L 647.39 587.97
  Q 646.85 588.29 646.85 588.92
  L 646.88 820.67
  A 1.06 1.03 23.1 0 0 647.19 821.41
  Q 649.03 823.27 650.37 821.67
  Q 651.01 820.91 651.01 819.52
  Q 650.96 705.76 651.04 592.00"
/>
<path stroke="#afb49e" vector-effect="non-scaling-stroke" d="
  M 737.71 611.00
  L 737.58 753.51
  Q 737.58 754.03 737.19 754.36
  Q 693.66 791.15 649.72 827.46
  Q 647.80 829.05 645.24 829.05
  Q 463.17 829.02 281.04 828.98
  Q 280.53 828.98 280.53 828.47
  L 280.54 660.25"
/>
<path stroke="#feeca0" vector-effect="non-scaling-stroke" d="
  M 280.54 660.25
  C 282.07 660.35 283.69 660.62 285.16 660.61
  Q 430.80 659.90 576.44 659.83
  C 582.84 659.83 594.65 660.55 602.88 657.75
  C 610.70 655.10 614.43 649.25 618.01 642.01
  Q 625.30 627.28 632.36 612.45
  Q 632.58 612.00 632.30 611.59
  L 631.54 610.50"
/>
<path stroke="#afa97d" vector-effect="non-scaling-stroke" d="
  M 739.28 605.39
  Q 736.83 607.32 737.71 611.00"
/>
<path stroke="#feeca0" vector-effect="non-scaling-stroke" d="
  M 737.71 611.00
  Q 724.62 623.95 711.20 636.55
  C 705.31 642.07 693.39 639.83 687.60 636.26
  Q 683.84 633.93 678.51 627.10
  Q 666.82 612.10 655.73 596.65
  C 654.24 594.57 653.80 592.76 651.04 592.00"
/>
<path stroke="#afa97d" vector-effect="non-scaling-stroke" d="
  M 651.04 592.00
  Q 651.73 588.73 649.72 586.59"
/>
<path stroke="#feeca0" vector-effect="non-scaling-stroke" d="
  M 649.72 586.59
  Q 649.30 584.54 647.75 582.96"
/>
<path stroke="#afa97d" vector-effect="non-scaling-stroke" d="
  M 279.00 653.21
  C 281.01 653.16 280.58 658.95 280.54 660.25"
/>
<path stroke="#afa97d" vector-effect="non-scaling-stroke" d="
  M 554.00 501.21
  Q 496.25 502.18 438.50 501.28
  Q 438.10 501.27 437.79 501.00"
/>
<path stroke="none" vector-effect="non-scaling-stroke" d="
  M 899.3600 339.8397
  A 3.58 3.41 90.8 0 0 902.8197 336.3076
  A 3.58 3.41 90.8 0 0 899.4600 332.6803
  A 3.58 3.41 90.8 0 0 896.0003 336.2124
  A 3.58 3.41 90.8 0 0 899.3600 339.8397"
/>
<path stroke="#acb5ba" vector-effect="non-scaling-stroke" d="
  M 537.69 422.31
  Q 545.11 424.80 555.00 425.57
  C 569.42 426.71 583.58 428.11 596.18 428.87
  Q 675.24 433.70 761.18 436.36
  Q 766.71 436.53 769.15 436.51
  Q 769.68 436.51 769.75 435.98
  Q 778.33 375.85 788.79 316.01
  Q 791.27 301.82 794.96 287.88
  Q 795.63 285.35 795.33 284.17
  C 794.03 278.95 772.87 274.86 768.00 274.22
  Q 747.42 271.49 726.68 270.44
  Q 654.43 266.75 582.25 271.49
  Q 563.11 272.75 550.05 275.00
  C 547.68 275.41 546.83 276.18 546.41 278.49
  Q 542.62 299.50 540.76 318.09
  Q 538.76 337.94 537.18 357.82
  C 536.61 364.97 532.88 420.70 537.69 422.31"
/>
<path stroke="#acb5ba" vector-effect="non-scaling-stroke" d="
  M 608.02 371.46
  L 603.60 404.65
  Q 603.52 405.26 604.13 405.26
  L 606.55 405.23
  Q 607.17 405.23 607.35 404.64
  Q 607.84 403.06 607.93 402.43
  Q 613.14 363.75 618.35 324.39
  A 1.42 1.41 -70.3 0 0 617.71 323.02
  C 615.63 321.68 614.36 324.24 614.13 325.93
  Q 611.30 346.93 608.50 367.33
  Q 608.38 368.26 607.48 368.00
  Q 595.90 364.66 585.22 361.91
  Q 579.33 360.40 580.56 354.51
  Q 585.23 332.29 589.96 310.05
  Q 590.12 309.27 589.33 309.41
  L 586.94 309.83
  Q 586.30 309.95 586.17 310.58
  Q 584.08 320.27 581.74 329.91
  C 581.47 331.02 581.91 332.22 580.92 333.55
  Q 580.63 333.94 580.64 334.43
  Q 580.69 335.91 579.84 338.82
  Q 578.67 342.79 576.65 355.28
  Q 575.64 361.57 581.56 363.43
  Q 595.46 367.81 607.54 370.77
  Q 608.09 370.90 608.02 371.46"
/>
<path stroke="#acb5ba" vector-effect="non-scaling-stroke" d="
  M 652.62 317.11
  C 662.84 307.25 678.71 313.08 685.68 323.59
  C 696.80 340.38 690.72 365.65 681.52 382.58
  C 676.68 391.49 667.46 398.70 657.13 394.30
  C 648.71 390.72 644.92 381.14 643.20 372.71
  Q 637.49 344.85 651.98 320.57
  A 0.66 0.66 0.0 0 0 651.62 319.60
  C 649.78 319.01 648.54 319.87 647.58 321.49
  Q 635.77 341.61 637.69 365.56
  C 638.50 375.57 641.86 386.65 649.33 393.15
  C 657.56 400.32 668.91 399.09 677.52 392.03
  C 693.04 379.32 699.96 344.79 692.58 327.46
  C 685.02 309.71 662.73 302.93 648.65 317.43
  A 0.64 0.64 0.0 0 0 649.08 318.52
  Q 651.06 318.62 652.62 317.11"
/>
<path stroke="#acb5ba" vector-effect="non-scaling-stroke" d="
  M 736.31 369.85
  L 728.02 406.54
  A 1.27 1.27 0.0 0 0 728.83 408.01
  C 732.82 409.42 733.35 400.90 733.90 398.53
  C 740.15 371.38 746.85 344.32 752.59 317.06
  Q 752.70 316.52 752.17 316.37
  Q 750.51 315.89 749.13 316.70
  Q 748.77 316.90 748.68 317.31
  L 737.49 365.90
  Q 737.37 366.42 736.84 366.34
  C 729.33 365.26 716.81 364.43 714.02 361.28
  Q 713.72 360.94 713.81 360.49
  L 722.84 315.01
  A 1.65 1.65 0.0 0 0 722.16 313.32
  C 720.71 312.32 719.07 313.66 718.74 315.27
  Q 714.44 336.34 710.27 357.47
  C 709.23 362.72 709.82 365.60 715.52 366.51
  Q 729.65 368.77 735.99 369.40
  Q 736.40 369.45 736.31 369.85"
/>
<path stroke="#acb5ba" vector-effect="non-scaling-stroke" d="
  M 700.4317 407.2744
  A 3.24 2.93 30.5 0 0 699.1271 403.1054
  A 3.24 2.93 30.5 0 0 694.8483 403.9856
  A 3.24 2.93 30.5 0 0 696.1529 408.1546
  A 3.24 2.93 30.5 0 0 700.4317 407.2744"
/>
<path stroke="#acb5ba" vector-effect="non-scaling-stroke" d="
  M 707.4840 409.3317
  A 2.96 2.62 53.9 0 0 707.8569 405.3963
  A 2.96 2.62 53.9 0 0 703.9960 404.5483
  A 2.96 2.62 53.9 0 0 703.6231 408.4837
  A 2.96 2.62 53.9 0 0 707.4840 409.3317"
/>
<path stroke="#acb5ba" vector-effect="non-scaling-stroke" d="
  M 694.54 412.33
  A 2.81 2.81 0.0 0 0 691.73 409.52
  A 2.81 2.81 0.0 0 0 688.92 412.33
  A 2.81 2.81 0.0 0 0 691.73 415.14
  A 2.81 2.81 0.0 0 0 694.54 412.33"
/>
<path stroke="#acb5ba" vector-effect="non-scaling-stroke" d="
  M 697.13 413.58
  C 689.99 421.70 704.29 424.87 705.70 418.44
  Q 705.82 417.89 705.43 417.47
  Q 703.15 415.06 702.25 411.83
  Q 702.09 411.26 701.50 411.34
  Q 698.78 411.70 697.13 413.58"
/>
<path stroke="#acb5ba" vector-effect="non-scaling-stroke" d="
  M 708.9927 417.6799
  A 2.62 2.04 75.8 0 0 710.3277 414.6396
  A 2.62 2.04 75.8 0 0 707.7073 412.6001
  A 2.62 2.04 75.8 0 0 706.3723 415.6404
  A 2.62 2.04 75.8 0 0 708.9927 417.6799"
/>
<path stroke="#acb5ba" vector-effect="non-scaling-stroke" d="
  M 438.16 564.01
  C 441.17 563.92 458.27 565.39 459.12 562.71
  Q 459.35 561.97 458.58 562.03
  L 454.76 562.32
  A 0.67 0.67 0.0 0 1 454.10 561.38
  C 459.80 548.79 437.28 548.45 443.19 561.49
  A 0.59 0.58 83.2 0 1 442.55 562.31
  Q 440.04 561.85 437.90 563.12
  A 0.48 0.48 0.0 0 0 438.16 564.01"
/>
<path stroke="#acb5ba" vector-effect="non-scaling-stroke" d="
  M 541.05 561.59
  C 546.66 548.75 525.16 547.47 530.39 561.57
  Q 530.54 561.99 530.10 562.07
  L 525.18 562.96
  A 0.51 0.51 0.0 0 0 525.27 563.98
  C 531.09 564.02 541.17 565.10 546.41 563.22
  Q 546.70 563.12 546.50 562.88
  Q 546.41 562.78 546.31 562.70
  Q 545.73 562.25 545.50 562.25
  L 541.48 562.25
  Q 540.76 562.25 541.05 561.59"
/>
<path stroke="#afb49e" vector-effect="non-scaling-stroke" d="
  M 651.86 577.45
  L 701.29 625.24
  Q 702.58 626.49 703.92 625.29
  Q 744.05 589.64 784.05 554.27
  Q 788.18 550.62 784.18 546.82
  C 769.12 532.53 755.19 517.03 740.09 502.95
  A 1.60 1.60 0.0 0 0 737.91 502.95
  C 729.41 510.78 720.36 517.84 711.64 525.37
  Q 681.81 551.12 651.88 576.76
  Q 651.50 577.09 651.86 577.45"
/>
<path stroke="#acb5ba" vector-effect="non-scaling-stroke" d="
  M 747.9489 507.8058
  A 0.48 0.48 0.0 0 0 747.9347 507.1271
  L 743.5175 502.8912
  A 0.48 0.48 0.0 0 0 742.8388 502.9054
  L 742.8111 502.9342
  A 0.48 0.48 0.0 0 0 742.8253 503.6129
  L 747.2425 507.8488
  A 0.48 0.48 0.0 0 0 747.9212 507.8346
  L 747.9489 507.8058"
/>
<path stroke="#afb49e" vector-effect="non-scaling-stroke" d="
  M 247.25 647.30
  C 364.86 647.63 482.45 647.74 600.06 647.27
  Q 606.09 647.24 609.11 642.06
  Q 627.44 610.50 645.86 579.25
  A 0.31 0.31 0.0 0 0 645.59 578.78
  C 568.77 578.29 491.85 577.80 415.07 578.37
  Q 349.11 578.86 282.31 578.47
  Q 281.42 578.46 280.95 579.22
  Q 265.65 603.87 250.05 628.85
  Q 244.10 638.36 242.50 641.98
  C 240.47 646.55 243.80 647.29 247.25 647.30"
/>
<path stroke="#afa97d" vector-effect="non-scaling-stroke" d="
  M 373.0982 509.1015
  A 1.27 1.27 0.0 0 0 371.8348 507.8249
  L 370.1548 507.8161
  A 1.27 1.27 0.0 0 0 368.8782 509.0794
  L 368.5418 573.3185
  A 1.27 1.27 0.0 0 0 369.8052 574.5951
  L 371.4852 574.6039
  A 1.27 1.27 0.0 0 0 372.7618 573.3406
  L 373.0982 509.1015"
/>
</g>
<path fill="none" d="
  M 0.00 0.00
  L 1024.00 0.00
  L 1024.00 1024.00
  L 0.00 1024.00
  L 0.00 0.00
  Z
  M 593.08 500.67
  Q 591.08 499.52 590.12 501.24
  Q 589.97 501.50 589.67 501.50
  L 589.29 501.50
  C 588.10 497.00 585.25 483.11 580.15 482.03
  C 573.38 480.58 559.96 497.61 555.50 502.54
  L 554.00 501.21
  Q 554.81 500.60 554.76 499.77
  A 0.99 0.98 88.7 0 0 553.80 498.85
  Q 496.65 498.14 439.60 498.84
  C 438.24 498.86 437.18 499.49 437.79 501.00
  L 437.21 501.75
  Q 427.13 490.98 417.19 480.05
  C 414.06 476.61 409.88 477.12 408.17 481.46
  Q 404.40 490.99 400.71 500.50
  Q 398.75 501.49 397.00 500.21
  C 395.45 497.61 374.52 498.74 370.85 499.08
  Q 370.34 499.13 369.95 499.46
  Q 325.12 537.16 280.54 575.15
  Q 278.03 577.28 276.33 580.07
  Q 253.43 617.57 240.42 638.42
  C 239.06 640.60 237.30 642.86 237.94 645.43
  Q 238.97 649.65 244.01 649.73
  Q 258.40 649.98 279.00 649.55
  L 279.00 653.21
  Q 276.31 653.34 276.31 656.00
  Q 276.24 743.56 276.24 831.02
  A 1.24 1.23 0.0 0 0 277.48 832.25
  L 649.01 832.25
  Q 649.50 832.25 649.90 831.98
  Q 650.89 831.31 651.80 830.55
  Q 690.84 797.71 730.01 765.03
  C 734.64 761.16 742.01 757.81 741.97 751.00
  Q 741.55 687.51 741.80 606.75
  Q 741.81 605.13 739.28 605.39
  Q 740.63 601.73 738.96 598.25
  Q 763.04 576.53 787.53 555.31
  Q 793.41 550.22 788.03 544.99
  C 773.21 530.60 761.32 518.52 749.39 507.10
  Q 744.27 502.21 741.74 499.26
  Q 740.71 498.07 739.60 498.80
  Q 739.19 499.07 738.71 499.06
  L 727.00 498.79
  C 714.32 499.33 700.27 498.71 689.02 498.89
  Q 665.97 499.25 642.99 498.81
  Q 642.49 498.80 642.54 498.30
  L 649.09 434.58
  A 0.51 0.50 -85.3 0 1 649.62 434.12
  Q 706.13 436.50 762.57 438.62
  Q 767.49 438.81 771.81 438.74
  Q 773.35 438.72 773.57 437.20
  Q 781.50 383.14 790.19 329.99
  Q 793.64 308.89 798.61 288.08
  C 800.67 279.45 792.50 276.91 785.72 275.36
  Q 768.54 271.43 750.98 269.98
  Q 703.66 266.06 656.18 266.69
  C 616.63 267.21 586.14 267.29 551.78 272.68
  C 546.83 273.46 543.59 274.10 542.51 279.01
  Q 539.84 291.12 538.69 301.55
  C 534.57 338.94 530.43 375.97 531.44 413.69
  C 531.56 418.23 532.10 424.87 536.74 425.62
  Q 550.47 427.83 572.68 429.42
  Q 608.66 431.99 644.74 433.77
  Q 645.17 433.79 645.13 434.23
  L 638.59 497.84
  Q 638.55 498.29 638.10 498.36
  C 627.31 500.07 616.03 499.31 602.18 499.21
  Q 602.12 499.21 598.98 498.84
  Q 595.95 498.48 593.08 500.67
  Z
  M 899.3600 339.8397
  A 3.58 3.41 90.8 0 0 902.8197 336.3076
  A 3.58 3.41 90.8 0 0 899.4600 332.6803
  A 3.58 3.41 90.8 0 0 896.0003 336.2124
  A 3.58 3.41 90.8 0 0 899.3600 339.8397
  Z"
/>
<path fill="#5f717b" d="
  M 727.00 498.79
  L 727.25 500.46
  Q 726.90 500.47 726.64 500.68
  Q 726.27 500.99 725.78 500.99
  L 642.93 501.14
  Q 642.48 501.14 642.42 501.59
  L 635.89 554.06
  A 0.67 0.67 0.0 0 0 636.61 554.81
  Q 648.93 553.79 650.81 564.17
  C 651.70 569.08 649.64 573.48 644.91 575.24
  L 643.90 574.69
  Q 643.38 574.40 643.77 573.95
  C 650.10 566.62 646.58 556.41 636.00 556.76
  Q 635.39 556.78 635.29 557.37
  Q 634.28 563.30 633.37 569.20
  C 633.02 571.44 631.73 572.18 629.60 571.68
  Q 629.04 571.55 629.13 570.98
  L 631.02 558.99
  A 0.47 0.47 0.0 0 0 630.32 558.51
  Q 622.45 563.08 618.46 571.21
  Q 617.64 572.89 614.39 572.69
  Q 619.07 560.97 630.78 556.35
  Q 631.28 556.16 631.43 555.65
  Q 632.40 552.48 632.53 551.50
  Q 635.56 527.70 638.10 503.01
  Q 638.22 501.86 637.09 501.59
  C 634.69 501.02 632.29 500.78 629.65 500.79
  Q 611.38 500.88 593.08 500.67
  Q 595.95 498.48 598.98 498.84
  Q 602.12 499.21 602.18 499.21
  C 616.03 499.31 627.31 500.07 638.10 498.36
  Q 638.55 498.29 638.59 497.84
  L 645.13 434.23
  Q 645.17 433.79 644.74 433.77
  Q 608.66 431.99 572.68 429.42
  Q 550.47 427.83 536.74 425.62
  C 532.10 424.87 531.56 418.23 531.44 413.69
  C 530.43 375.97 534.57 338.94 538.69 301.55
  Q 539.84 291.12 542.51 279.01
  C 543.59 274.10 546.83 273.46 551.78 272.68
  C 586.14 267.29 616.63 267.21 656.18 266.69
  Q 703.66 266.06 750.98 269.98
  Q 768.54 271.43 785.72 275.36
  C 792.50 276.91 800.67 279.45 798.61 288.08
  Q 793.64 308.89 790.19 329.99
  Q 781.50 383.14 773.57 437.20
  Q 773.35 438.72 771.81 438.74
  Q 767.49 438.81 762.57 438.62
  Q 706.13 436.50 649.62 434.12
  A 0.51 0.50 -85.3 0 0 649.09 434.58
  L 642.54 498.30
  Q 642.49 498.80 642.99 498.81
  Q 665.97 499.25 689.02 498.89
  C 700.27 498.71 714.32 499.33 727.00 498.79
  Z
  M 537.69 422.31
  Q 545.11 424.80 555.00 425.57
  C 569.42 426.71 583.58 428.11 596.18 428.87
  Q 675.24 433.70 761.18 436.36
  Q 766.71 436.53 769.15 436.51
  Q 769.68 436.51 769.75 435.98
  Q 778.33 375.85 788.79 316.01
  Q 791.27 301.82 794.96 287.88
  Q 795.63 285.35 795.33 284.17
  C 794.03 278.95 772.87 274.86 768.00 274.22
  Q 747.42 271.49 726.68 270.44
  Q 654.43 266.75 582.25 271.49
  Q 563.11 272.75 550.05 275.00
  C 547.68 275.41 546.83 276.18 546.41 278.49
  Q 542.62 299.50 540.76 318.09
  Q 538.76 337.94 537.18 357.82
  C 536.61 364.97 532.88 420.70 537.69 422.31
  Z"
/>
<path fill="none" d="
  M 537.69 422.31
  C 532.88 420.70 536.61 364.97 537.18 357.82
  Q 538.76 337.94 540.76 318.09
  Q 542.62 299.50 546.41 278.49
  C 546.83 276.18 547.68 275.41 550.05 275.00
  Q 563.11 272.75 582.25 271.49
  Q 654.43 266.75 726.68 270.44
  Q 747.42 271.49 768.00 274.22
  C 772.87 274.86 794.03 278.95 795.33 284.17
  Q 795.63 285.35 794.96 287.88
  Q 791.27 301.82 788.79 316.01
  Q 778.33 375.85 769.75 435.98
  Q 769.68 436.51 769.15 436.51
  Q 766.71 436.53 761.18 436.36
  Q 675.24 433.70 596.18 428.87
  C 583.58 428.11 569.42 426.71 555.00 425.57
  Q 545.11 424.80 537.69 422.31
  Z
  M 608.02 371.46
  L 603.60 404.65
  Q 603.52 405.26 604.13 405.26
  L 606.55 405.23
  Q 607.17 405.23 607.35 404.64
  Q 607.84 403.06 607.93 402.43
  Q 613.14 363.75 618.35 324.39
  A 1.42 1.41 -70.3 0 0 617.71 323.02
  C 615.63 321.68 614.36 324.24 614.13 325.93
  Q 611.30 346.93 608.50 367.33
  Q 608.38 368.26 607.48 368.00
  Q 595.90 364.66 585.22 361.91
  Q 579.33 360.40 580.56 354.51
  Q 585.23 332.29 589.96 310.05
  Q 590.12 309.27 589.33 309.41
  L 586.94 309.83
  Q 586.30 309.95 586.17 310.58
  Q 584.08 320.27 581.74 329.91
  C 581.47 331.02 581.91 332.22 580.92 333.55
  Q 580.63 333.94 580.64 334.43
  Q 580.69 335.91 579.84 338.82
  Q 578.67 342.79 576.65 355.28
  Q 575.64 361.57 581.56 363.43
  Q 595.46 367.81 607.54 370.77
  Q 608.09 370.90 608.02 371.46
  Z
  M 652.62 317.11
  C 662.84 307.25 678.71 313.08 685.68 323.59
  C 696.80 340.38 690.72 365.65 681.52 382.58
  C 676.68 391.49 667.46 398.70 657.13 394.30
  C 648.71 390.72 644.92 381.14 643.20 372.71
  Q 637.49 344.85 651.98 320.57
  A 0.66 0.66 0.0 0 0 651.62 319.60
  C 649.78 319.01 648.54 319.87 647.58 321.49
  Q 635.77 341.61 637.69 365.56
  C 638.50 375.57 641.86 386.65 649.33 393.15
  C 657.56 400.32 668.91 399.09 677.52 392.03
  C 693.04 379.32 699.96 344.79 692.58 327.46
  C 685.02 309.71 662.73 302.93 648.65 317.43
  A 0.64 0.64 0.0 0 0 649.08 318.52
  Q 651.06 318.62 652.62 317.11
  Z
  M 736.31 369.85
  L 728.02 406.54
  A 1.27 1.27 0.0 0 0 728.83 408.01
  C 732.82 409.42 733.35 400.90 733.90 398.53
  C 740.15 371.38 746.85 344.32 752.59 317.06
  Q 752.70 316.52 752.17 316.37
  Q 750.51 315.89 749.13 316.70
  Q 748.77 316.90 748.68 317.31
  L 737.49 365.90
  Q 737.37 366.42 736.84 366.34
  C 729.33 365.26 716.81 364.43 714.02 361.28
  Q 713.72 360.94 713.81 360.49
  L 722.84 315.01
  A 1.65 1.65 0.0 0 0 722.16 313.32
  C 720.71 312.32 719.07 313.66 718.74 315.27
  Q 714.44 336.34 710.27 357.47
  C 709.23 362.72 709.82 365.60 715.52 366.51
  Q 729.65 368.77 735.99 369.40
  Q 736.40 369.45 736.31 369.85
  Z
  M 700.4317 407.2744
  A 3.24 2.93 30.5 0 0 699.1271 403.1054
  A 3.24 2.93 30.5 0 0 694.8483 403.9856
  A 3.24 2.93 30.5 0 0 696.1529 408.1546
  A 3.24 2.93 30.5 0 0 700.4317 407.2744
  Z
  M 707.4840 409.3317
  A 2.96 2.62 53.9 0 0 707.8569 405.3963
  A 2.96 2.62 53.9 0 0 703.9960 404.5483
  A 2.96 2.62 53.9 0 0 703.6231 408.4837
  A 2.96 2.62 53.9 0 0 707.4840 409.3317
  Z
  M 694.54 412.33
  A 2.81 2.81 0.0 0 0 691.73 409.52
  A 2.81 2.81 0.0 0 0 688.92 412.33
  A 2.81 2.81 0.0 0 0 691.73 415.14
  A 2.81 2.81 0.0 0 0 694.54 412.33
  Z
  M 697.13 413.58
  C 689.99 421.70 704.29 424.87 705.70 418.44
  Q 705.82 417.89 705.43 417.47
  Q 703.15 415.06 702.25 411.83
  Q 702.09 411.26 701.50 411.34
  Q 698.78 411.70 697.13 413.58
  Z
  M 708.9927 417.6799
  A 2.62 2.04 75.8 0 0 710.3277 414.6396
  A 2.62 2.04 75.8 0 0 707.7073 412.6001
  A 2.62 2.04 75.8 0 0 706.3723 415.6404
  A 2.62 2.04 75.8 0 0 708.9927 417.6799
  Z"
/>
<path fill="#5f717b" d="
  M 607.54 370.77
  Q 595.46 367.81 581.56 363.43
  Q 575.64 361.57 576.65 355.28
  Q 578.67 342.79 579.84 338.82
  Q 580.69 335.91 580.64 334.43
  Q 580.63 333.94 580.92 333.55
  C 581.91 332.22 581.47 331.02 581.74 329.91
  Q 584.08 320.27 586.17 310.58
  Q 586.30 309.95 586.94 309.83
  L 589.33 309.41
  Q 590.12 309.27 589.96 310.05
  Q 585.23 332.29 580.56 354.51
  Q 579.33 360.40 585.22 361.91
  Q 595.90 364.66 607.48 368.00
  Q 608.38 368.26 608.50 367.33
  Q 611.30 346.93 614.13 325.93
  C 614.36 324.24 615.63 321.68 617.71 323.02
  A 1.42 1.41 -70.3 0 1 618.35 324.39
  Q 613.14 363.75 607.93 402.43
  Q 607.84 403.06 607.35 404.64
  Q 607.17 405.23 606.55 405.23
  L 604.13 405.26
  Q 603.52 405.26 603.60 404.65
  L 608.02 371.46
  Q 608.09 370.90 607.54 370.77
  Z"
/>
<path fill="#5f717b" d="
  M 685.68 323.59
  C 678.71 313.08 662.84 307.25 652.62 317.11
  Q 651.06 318.62 649.08 318.52
  A 0.64 0.64 0.0 0 1 648.65 317.43
  C 662.73 302.93 685.02 309.71 692.58 327.46
  C 699.96 344.79 693.04 379.32 677.52 392.03
  C 668.91 399.09 657.56 400.32 649.33 393.15
  C 641.86 386.65 638.50 375.57 637.69 365.56
  Q 635.77 341.61 647.58 321.49
  C 648.54 319.87 649.78 319.01 651.62 319.60
  A 0.66 0.66 0.0 0 1 651.98 320.57
  Q 637.49 344.85 643.20 372.71
  C 644.92 381.14 648.71 390.72 657.13 394.30
  C 667.46 398.70 676.68 391.49 681.52 382.58
  C 690.72 365.65 696.80 340.38 685.68 323.59
  Z"
/>
<path fill="#5f717b" d="
  M 735.99 369.40
  Q 729.65 368.77 715.52 366.51
  C 709.82 365.60 709.23 362.72 710.27 357.47
  Q 714.44 336.34 718.74 315.27
  C 719.07 313.66 720.71 312.32 722.16 313.32
  A 1.65 1.65 0.0 0 1 722.84 315.01
  L 713.81 360.49
  Q 713.72 360.94 714.02 361.28
  C 716.81 364.43 729.33 365.26 736.84 366.34
  Q 737.37 366.42 737.49 365.90
  L 748.68 317.31
  Q 748.77 316.90 749.13 316.70
  Q 750.51 315.89 752.17 316.37
  Q 752.70 316.52 752.59 317.06
  C 746.85 344.32 740.15 371.38 733.90 398.53
  C 733.35 400.90 732.82 409.42 728.83 408.01
  A 1.27 1.27 0.0 0 1 728.02 406.54
  L 736.31 369.85
  Q 736.40 369.45 735.99 369.40
  Z"
/>
<ellipse fill="none" cx="0.00" cy="0.00" transform="translate(899.41,336.26) rotate(90.8)" rx="3.58" ry="3.41"/>
<ellipse fill="#5f717b" cx="0.00" cy="0.00" transform="translate(697.64,405.63) rotate(30.5)" rx="3.24" ry="2.93"/>
<ellipse fill="#5f717b" cx="0.00" cy="0.00" transform="translate(705.74,406.94) rotate(53.9)" rx="2.96" ry="2.62"/>
<circle fill="#5f717b" cx="691.73" cy="412.33" r="2.81"/>
<path fill="#5f717b" d="
  M 705.70 418.44
  C 704.29 424.87 689.99 421.70 697.13 413.58
  Q 698.78 411.70 701.50 411.34
  Q 702.09 411.26 702.25 411.83
  Q 703.15 415.06 705.43 417.47
  Q 705.82 417.89 705.70 418.44
  Z"
/>
<ellipse fill="#5f717b" cx="0.00" cy="0.00" transform="translate(708.35,415.14) rotate(75.8)" rx="2.62" ry="2.04"/>
<path fill="#5f717b" d="
  M 437.21 501.75
  C 441.71 507.28 450.69 519.80 458.25 519.95
  Q 490.44 520.61 526.08 519.97
  C 533.85 519.83 539.70 522.78 545.35 515.60
  Q 550.47 509.10 555.50 502.54
  C 559.96 497.61 573.38 480.58 580.15 482.03
  C 585.25 483.11 588.10 497.00 589.29 501.50
  Q 599.03 539.34 608.75 570.75
  Q 609.14 572.00 608.46 572.75
  Q 606.91 573.20 605.39 572.95
  Q 604.85 572.87 604.70 572.35
  C 596.25 544.88 589.57 516.94 580.87 489.58
  Q 580.16 487.36 578.96 485.34
  A 1.99 1.98 52.0 0 0 575.84 484.95
  Q 561.40 499.53 548.87 515.62
  Q 543.12 523.00 534.02 522.70
  C 506.80 521.81 482.32 522.00 456.50 521.65
  Q 449.42 521.55 445.09 516.66
  Q 429.02 498.50 412.80 480.68
  A 0.41 0.41 0.0 0 0 412.11 480.82
  C 408.55 490.98 404.33 501.29 401.31 511.12
  Q 390.08 547.63 383.73 571.70
  Q 382.90 574.84 380.25 575.04
  Q 378.83 575.07 379.10 574.08
  C 383.41 558.01 390.65 531.51 398.64 508.52
  C 399.52 505.97 399.93 503.20 400.71 500.50
  Q 404.40 490.99 408.17 481.46
  C 409.88 477.12 414.06 476.61 417.19 480.05
  Q 427.13 490.98 437.21 501.75
  Z"
/>
<path fill="none" d="
  M 608.46 572.75
  L 608.50 576.21
  L 495.53 576.33
  Q 495.08 576.33 494.91 575.90
  C 493.89 573.24 499.00 571.67 500.82 570.40
  A 0.48 0.48 0.0 0 0 500.55 569.52
  L 485.79 569.22
  A 0.79 0.79 0.0 0 0 485.40 570.70
  C 487.08 571.60 491.35 573.43 490.95 575.64
  Q 490.85 576.19 490.29 576.19
  L 380.00 576.21
  L 380.25 575.04
  Q 382.90 574.84 383.73 571.70
  Q 390.08 547.63 401.31 511.12
  C 404.33 501.29 408.55 490.98 412.11 480.82
  A 0.41 0.41 0.0 0 1 412.80 480.68
  Q 429.02 498.50 445.09 516.66
  Q 449.42 521.55 456.50 521.65
  C 482.32 522.00 506.80 521.81 534.02 522.70
  Q 543.12 523.00 548.87 515.62
  Q 561.40 499.53 575.84 484.95
  A 1.99 1.98 52.0 0 1 578.96 485.34
  Q 580.16 487.36 580.87 489.58
  C 589.57 516.94 596.25 544.88 604.70 572.35
  Q 604.85 572.87 605.39 572.95
  Q 606.91 573.20 608.46 572.75
  Z
  M 438.16 564.01
  C 441.17 563.92 458.27 565.39 459.12 562.71
  Q 459.35 561.97 458.58 562.03
  L 454.76 562.32
  A 0.67 0.67 0.0 0 1 454.10 561.38
  C 459.80 548.79 437.28 548.45 443.19 561.49
  A 0.59 0.58 83.2 0 1 442.55 562.31
  Q 440.04 561.85 437.90 563.12
  A 0.48 0.48 0.0 0 0 438.16 564.01
  Z
  M 541.05 561.59
  C 546.66 548.75 525.16 547.47 530.39 561.57
  Q 530.54 561.99 530.10 562.07
  L 525.18 562.96
  A 0.51 0.51 0.0 0 0 525.27 563.98
  C 531.09 564.02 541.17 565.10 546.41 563.22
  Q 546.70 563.12 546.50 562.88
  Q 546.41 562.78 546.31 562.70
  Q 545.73 562.25 545.50 562.25
  L 541.48 562.25
  Q 540.76 562.25 541.05 561.59
  Z"
/>
<path fill="#5f717b" d="
  M 397.00 500.21
  C 396.39 500.38 395.22 500.85 394.62 500.84
  Q 383.31 500.64 372.00 500.91
  Q 371.49 500.93 371.07 501.21
  Q 367.44 503.66 362.57 508.07
  Q 352.05 517.62 325.66 540.39
  C 311.87 552.28 298.02 564.17 283.97 575.78
  A 0.30 0.30 0.0 0 0 284.16 576.31
  L 380.00 576.21
  L 490.29 576.19
  Q 490.85 576.19 490.95 575.64
  C 491.35 573.43 487.08 571.60 485.40 570.70
  A 0.79 0.79 0.0 0 1 485.79 569.22
  L 500.55 569.52
  A 0.48 0.48 0.0 0 1 500.82 570.40
  C 499.00 571.67 493.89 573.24 494.91 575.90
  Q 495.08 576.33 495.53 576.33
  L 608.50 576.21
  L 615.00 576.21
  L 644.25 576.21
  L 648.01 575.92
  Q 648.52 575.88 648.91 575.55
  Q 677.55 551.45 706.10 527.24
  C 709.03 524.75 713.38 521.59 716.81 518.40
  C 722.46 513.14 726.89 509.54 731.87 505.00
  C 732.92 504.04 734.46 503.67 735.63 502.47
  A 0.98 0.98 0.0 0 0 735.24 500.85
  Q 734.12 500.47 733.22 501.08
  Q 732.79 501.38 732.27 501.43
  Q 729.58 501.73 727.25 500.46
  L 727.00 498.79
  L 738.71 499.06
  Q 739.19 499.07 739.60 498.80
  Q 740.71 498.07 741.74 499.26
  Q 744.27 502.21 749.39 507.10
  C 761.32 518.52 773.21 530.60 788.03 544.99
  Q 793.41 550.22 787.53 555.31
  Q 763.04 576.53 738.96 598.25
  Q 714.98 618.61 707.80 625.80
  C 700.27 633.33 693.01 622.74 688.14 618.01
  Q 669.06 599.44 649.82 581.00
  Q 649.43 580.63 648.99 580.93
  Q 647.95 581.65 647.75 582.96
  L 631.54 610.50
  Q 622.96 624.52 614.71 638.73
  C 611.71 643.90 607.71 649.10 602.24 649.46
  C 591.26 650.19 576.01 649.51 566.58 649.51
  Q 422.79 649.46 279.00 649.55
  Q 258.40 649.98 244.01 649.73
  Q 238.97 649.65 237.94 645.43
  C 237.30 642.86 239.06 640.60 240.42 638.42
  Q 253.43 617.57 276.33 580.07
  Q 278.03 577.28 280.54 575.15
  Q 325.12 537.16 369.95 499.46
  Q 370.34 499.13 370.85 499.08
  C 374.52 498.74 395.45 497.61 397.00 500.21
  Z
  M 651.86 577.45
  L 701.29 625.24
  Q 702.58 626.49 703.92 625.29
  Q 744.05 589.64 784.05 554.27
  Q 788.18 550.62 784.18 546.82
  C 769.12 532.53 755.19 517.03 740.09 502.95
  A 1.60 1.60 0.0 0 0 737.91 502.95
  C 729.41 510.78 720.36 517.84 711.64 525.37
  Q 681.81 551.12 651.88 576.76
  Q 651.50 577.09 651.86 577.45
  Z
  M 747.9489 507.8058
  A 0.48 0.48 0.0 0 0 747.9347 507.1271
  L 743.5175 502.8912
  A 0.48 0.48 0.0 0 0 742.8388 502.9054
  L 742.8111 502.9342
  A 0.48 0.48 0.0 0 0 742.8253 503.6129
  L 747.2425 507.8488
  A 0.48 0.48 0.0 0 0 747.9212 507.8346
  L 747.9489 507.8058
  Z
  M 247.25 647.30
  C 364.86 647.63 482.45 647.74 600.06 647.27
  Q 606.09 647.24 609.11 642.06
  Q 627.44 610.50 645.86 579.25
  A 0.31 0.31 0.0 0 0 645.59 578.78
  C 568.77 578.29 491.85 577.80 415.07 578.37
  Q 349.11 578.86 282.31 578.47
  Q 281.42 578.46 280.95 579.22
  Q 265.65 603.87 250.05 628.85
  Q 244.10 638.36 242.50 641.98
  C 240.47 646.55 243.80 647.29 247.25 647.30
  Z"
/>
<path fill="#5f717b" d="
  M 554.00 501.21
  Q 496.25 502.18 438.50 501.28
  Q 438.10 501.27 437.79 501.00
  C 437.18 499.49 438.24 498.86 439.60 498.84
  Q 496.65 498.14 553.80 498.85
  A 0.99 0.98 88.7 0 1 554.76 499.77
  Q 554.81 500.60 554.00 501.21
  Z"
/>
<path fill="#fee07f" d="
  M 397.00 500.21
  Q 398.75 501.49 400.71 500.50
  C 399.93 503.20 399.52 505.97 398.64 508.52
  C 390.65 531.51 383.41 558.01 379.10 574.08
  Q 378.83 575.07 380.25 575.04
  L 380.00 576.21
  L 284.16 576.31
  A 0.30 0.30 0.0 0 1 283.97 575.78
  C 298.02 564.17 311.87 552.28 325.66 540.39
  Q 352.05 517.62 362.57 508.07
  Q 367.44 503.66 371.07 501.21
  Q 371.49 500.93 372.00 500.91
  Q 383.31 500.64 394.62 500.84
  C 395.22 500.85 396.39 500.38 397.00 500.21
  Z
  M 373.0982 509.1015
  A 1.27 1.27 0.0 0 0 371.8348 507.8249
  L 370.1548 507.8161
  A 1.27 1.27 0.0 0 0 368.8782 509.0794
  L 368.5418 573.3185
  A 1.27 1.27 0.0 0 0 369.8052 574.5951
  L 371.4852 574.6039
  A 1.27 1.27 0.0 0 0 372.7618 573.3406
  L 373.0982 509.1015
  Z"
/>
<path fill="#fee07f" d="
  M 593.08 500.67
  Q 611.38 500.88 629.65 500.79
  C 632.29 500.78 634.69 501.02 637.09 501.59
  Q 638.22 501.86 638.10 503.01
  Q 635.56 527.70 632.53 551.50
  Q 632.40 552.48 631.43 555.65
  Q 631.28 556.16 630.78 556.35
  Q 619.07 560.97 614.39 572.69
  Q 615.16 574.82 615.00 576.21
  L 608.50 576.21
  L 608.46 572.75
  Q 609.14 572.00 608.75 570.75
  Q 599.03 539.34 589.29 501.50
  L 589.67 501.50
  Q 589.97 501.50 590.12 501.24
  Q 591.08 499.52 593.08 500.67
  Z"
/>
<path fill="#fee07f" d="
  M 727.25 500.46
  Q 729.58 501.73 732.27 501.43
  Q 732.79 501.38 733.22 501.08
  Q 734.12 500.47 735.24 500.85
  A 0.98 0.98 0.0 0 1 735.63 502.47
  C 734.46 503.67 732.92 504.04 731.87 505.00
  C 726.89 509.54 722.46 513.14 716.81 518.40
  C 713.38 521.59 709.03 524.75 706.10 527.24
  Q 677.55 551.45 648.91 575.55
  Q 648.52 575.88 648.01 575.92
  L 644.25 576.21
  L 644.91 575.24
  C 649.64 573.48 651.70 569.08 650.81 564.17
  Q 648.93 553.79 636.61 554.81
  A 0.67 0.67 0.0 0 1 635.89 554.06
  L 642.42 501.59
  Q 642.48 501.14 642.93 501.14
  L 725.78 500.99
  Q 726.27 500.99 726.64 500.68
  Q 726.90 500.47 727.25 500.46
  Z"
/>
<path fill="#fee07f" d="
  M 437.79 501.00
  Q 438.10 501.27 438.50 501.28
  Q 496.25 502.18 554.00 501.21
  L 555.50 502.54
  Q 550.47 509.10 545.35 515.60
  C 539.70 522.78 533.85 519.83 526.08 519.97
  Q 490.44 520.61 458.25 519.95
  C 450.69 519.80 441.71 507.28 437.21 501.75
  L 437.79 501.00
  Z"
/>
<path fill="#fef7c0" d="
  M 701.29 625.24
  L 651.86 577.45
  Q 651.50 577.09 651.88 576.76
  Q 681.81 551.12 711.64 525.37
  C 720.36 517.84 729.41 510.78 737.91 502.95
  A 1.60 1.60 0.0 0 1 740.09 502.95
  C 755.19 517.03 769.12 532.53 784.18 546.82
  Q 788.18 550.62 784.05 554.27
  Q 744.05 589.64 703.92 625.29
  Q 702.58 626.49 701.29 625.24
  Z"
/>
<rect fill="none" x="-3.54" y="-0.50" transform="translate(745.38,505.37) rotate(43.8)" width="7.08" height="1.00" rx="0.48"/>
<rect fill="#5f717b" x="-2.11" y="-33.39" transform="translate(370.82,541.21) rotate(0.3)" width="4.22" height="66.78" rx="1.27"/>
<path fill="#5f717b" d="
  M 459.12 562.71
  C 458.27 565.39 441.17 563.92 438.16 564.01
  A 0.48 0.48 0.0 0 1 437.90 563.12
  Q 440.04 561.85 442.55 562.31
  A 0.59 0.58 83.2 0 0 443.19 561.49
  C 437.28 548.45 459.80 548.79 454.10 561.38
  A 0.67 0.67 0.0 0 0 454.76 562.32
  L 458.58 562.03
  Q 459.35 561.97 459.12 562.71
  Z"
/>
<path fill="#5f717b" d="
  M 541.48 562.25
  L 545.50 562.25
  Q 545.73 562.25 546.31 562.70
  Q 546.41 562.78 546.50 562.88
  Q 546.70 563.12 546.41 563.22
  C 541.17 565.10 531.09 564.02 525.27 563.98
  A 0.51 0.51 0.0 0 1 525.18 562.96
  L 530.10 562.07
  Q 530.54 561.99 530.39 561.57
  C 525.16 547.47 546.66 548.75 541.05 561.59
  Q 540.76 562.25 541.48 562.25
  Z"
/>
<path fill="none" d="
  M 644.91 575.24
  L 644.25 576.21
  L 615.00 576.21
  Q 615.16 574.82 614.39 572.69
  Q 617.64 572.89 618.46 571.21
  Q 622.45 563.08 630.32 558.51
  A 0.47 0.47 0.0 0 1 631.02 558.99
  L 629.13 570.98
  Q 629.04 571.55 629.60 571.68
  C 631.73 572.18 633.02 571.44 633.37 569.20
  Q 634.28 563.30 635.29 557.37
  Q 635.39 556.78 636.00 556.76
  C 646.58 556.41 650.10 566.62 643.77 573.95
  Q 643.38 574.40 643.90 574.69
  L 644.91 575.24
  Z"
/>
<path fill="#fef7c0" d="
  M 600.06 647.27
  C 482.45 647.74 364.86 647.63 247.25 647.30
  C 243.80 647.29 240.47 646.55 242.50 641.98
  Q 244.10 638.36 250.05 628.85
  Q 265.65 603.87 280.95 579.22
  Q 281.42 578.46 282.31 578.47
  Q 349.11 578.86 415.07 578.37
  C 491.85 577.80 568.77 578.29 645.59 578.78
  A 0.31 0.31 0.0 0 1 645.86 579.25
  Q 627.44 610.50 609.11 642.06
  Q 606.09 647.24 600.06 647.27
  Z"
/>
<path fill="#fee07f" d="
  M 738.96 598.25
  Q 740.63 601.73 739.28 605.39
  Q 736.83 607.32 737.71 611.00
  Q 724.62 623.95 711.20 636.55
  C 705.31 642.07 693.39 639.83 687.60 636.26
  Q 683.84 633.93 678.51 627.10
  Q 666.82 612.10 655.73 596.65
  C 654.24 594.57 653.80 592.76 651.04 592.00
  Q 651.73 588.73 649.72 586.59
  Q 649.30 584.54 647.75 582.96
  Q 647.95 581.65 648.99 580.93
  Q 649.43 580.63 649.82 581.00
  Q 669.06 599.44 688.14 618.01
  C 693.01 622.74 700.27 633.33 707.80 625.80
  Q 714.98 618.61 738.96 598.25
  Z"
/>
<path fill="#fef7c0" d="
  M 647.75 582.96
  Q 649.30 584.54 649.72 586.59
  L 647.39 587.97
  Q 646.85 588.29 646.85 588.92
  L 646.88 820.67
  A 1.06 1.03 23.1 0 0 647.19 821.41
  Q 649.03 823.27 650.37 821.67
  Q 651.01 820.91 651.01 819.52
  Q 650.96 705.76 651.04 592.00
  C 653.80 592.76 654.24 594.57 655.73 596.65
  Q 666.82 612.10 678.51 627.10
  Q 683.84 633.93 687.60 636.26
  C 693.39 639.83 705.31 642.07 711.20 636.55
  Q 724.62 623.95 737.71 611.00
  L 737.58 753.51
  Q 737.58 754.03 737.19 754.36
  Q 693.66 791.15 649.72 827.46
  Q 647.80 829.05 645.24 829.05
  Q 463.17 829.02 281.04 828.98
  Q 280.53 828.98 280.53 828.47
  L 280.54 660.25
  C 282.07 660.35 283.69 660.62 285.16 660.61
  Q 430.80 659.90 576.44 659.83
  C 582.84 659.83 594.65 660.55 602.88 657.75
  C 610.70 655.10 614.43 649.25 618.01 642.01
  Q 625.30 627.28 632.36 612.45
  Q 632.58 612.00 632.30 611.59
  L 631.54 610.50
  L 647.75 582.96
  Z"
/>
<path fill="#5f717b" d="
  M 649.72 586.59
  Q 651.73 588.73 651.04 592.00
  Q 650.96 705.76 651.01 819.52
  Q 651.01 820.91 650.37 821.67
  Q 649.03 823.27 647.19 821.41
  A 1.06 1.03 23.1 0 1 646.88 820.67
  L 646.85 588.92
  Q 646.85 588.29 647.39 587.97
  L 649.72 586.59
  Z"
/>
<path fill="#5f717b" d="
  M 739.28 605.39
  Q 741.81 605.13 741.80 606.75
  Q 741.55 687.51 741.97 751.00
  C 742.01 757.81 734.64 761.16 730.01 765.03
  Q 690.84 797.71 651.80 830.55
  Q 650.89 831.31 649.90 831.98
  Q 649.50 832.25 649.01 832.25
  L 277.48 832.25
  A 1.24 1.23 0.0 0 1 276.24 831.02
  Q 276.24 743.56 276.31 656.00
  Q 276.31 653.34 279.00 653.21
  C 281.01 653.16 280.58 658.95 280.54 660.25
  L 280.53 828.47
  Q 280.53 828.98 281.04 828.98
  Q 463.17 829.02 645.24 829.05
  Q 647.80 829.05 649.72 827.46
  Q 693.66 791.15 737.19 754.36
  Q 737.58 754.03 737.58 753.51
  L 737.71 611.00
  Q 736.83 607.32 739.28 605.39
  Z"
/>
<path fill="#fee07f" d="
  M 631.54 610.50
  L 632.30 611.59
  Q 632.58 612.00 632.36 612.45
  Q 625.30 627.28 618.01 642.01
  C 614.43 649.25 610.70 655.10 602.88 657.75
  C 594.65 660.55 582.84 659.83 576.44 659.83
  Q 430.80 659.90 285.16 660.61
  C 283.69 660.62 282.07 660.35 280.54 660.25
  C 280.58 658.95 281.01 653.16 279.00 653.21
  L 279.00 649.55
  Q 422.79 649.46 566.58 649.51
  C 576.01 649.51 591.26 650.19 602.24 649.46
  C 607.71 649.10 611.71 643.90 614.71 638.73
  Q 622.96 624.52 631.54 610.50
  Z"
/>
</svg>
